<?xml version="1.0" encoding="UTF-8"?>
<svg id="Layer_1" xmlns="http://www.w3.org/2000/svg" xmlns:xlink="http://www.w3.org/1999/xlink" version="1.1" viewBox="0 0 595.28 841.89">
  <!-- Generator: Adobe Illustrator 30.2.1, SVG Export Plug-In . SVG Version: 2.1.1 Build 1)  -->
  <defs>
    <style>
      .st0, .st1 {
        fill: none;
      }

      .st2, .st3 {
        fill: #19656b;
      }

      .st4 {
        fill: #231f20;
      }

      .st5 {
        fill: #073f47;
      }

      .st6 {
        clip-path: url(#clippath-1);
      }

      .st7 {
        clip-path: url(#clippath-3);
      }

      .st8 {
        clip-path: url(#clippath-4);
      }

      .st9 {
        clip-path: url(#clippath-2);
      }

      .st10 {
        clip-path: url(#clippath-5);
      }

      .st11 {
        fill: #fff;
      }

      .st11, .st3, .st1, .st12 {
        stroke-miterlimit: 10;
      }

      .st11, .st12 {
        stroke: #231f20;
      }

      .st3, .st1 {
        stroke: #19656b;
      }

      .st3, .st1, .st12 {
        stroke-width: .25px;
      }

      .st13 {
        clip-path: url(#clippath);
      }
    </style>
    <clipPath id="clippath">
      <rect class="st0" x="304.52" y="437.48" width="33.7" height="16.53"/>
    </clipPath>
    <clipPath id="clippath-1">
      <rect class="st0" x="303.06" y="398.06" width="33.7" height="16.53"/>
    </clipPath>
    <clipPath id="clippath-2">
      <rect class="st0" x="326.05" y="434.17" width="33.7" height="16.53" transform="translate(2.62 -2.02) rotate(.34)"/>
    </clipPath>
    <clipPath id="clippath-3">
      <rect class="st0" x="344.61" y="432.5" width="33.7" height="16.53"/>
    </clipPath>
    <clipPath id="clippath-4">
      <rect class="st0" x="363.76" y="430.93" width="33.7" height="16.53" transform="translate(41.19 -32.56) rotate(5.18)"/>
    </clipPath>
    <clipPath id="clippath-5">
      <rect class="st0" x="382.79" y="432.07" width="33.7" height="16.53" transform="translate(113.86 -81.14) rotate(13.5)"/>
    </clipPath>
  </defs>
  <path class="st11" d="M255.4,426.1"/>
  <g>
    <path class="st2" d="M208.9,348.35c8.64,0,14.26,2.25,17.63,4.32,1.59.97,1.96,3.12.78,4.56l-1.59,1.94c-.99,1.21-2.74,1.5-4.05.65-3.1-2.01-7.26-3.55-13.65-3.55-4.24,0-7.96.98-11.07,3-10.05,6.54-10.5,21.89-10.6,28.57-.11,7.7-.3,21.73,8.48,27.19,4.42,2.75,9.21,1.52,18.74.14,9.03-1.3,16.83-2.77,22.54-4.93,1.83-.69,4.79-2.67,4.77-.71l-1.21,4.9s0,.05,0,.07c0,1.13.53,2.1-.53,2.5-12.31,4.63-24.25,6.35-32.1,6.93-8.47.62-12.79.89-17.2-1.52-12.76-6.96-12.49-27.98-12.49-33.8,0-25.3,11-40.26,31.57-40.26ZM247.69,412.77"/>
    <path class="st2" d="M264.1,427.11"/>
  </g>
  <path class="st2" d="M238.53,448.14v-71c0-1.69,1.37-3.06,3.06-3.06h34.81c1.69,0,3.06,1.37,3.06,3.06v1.7c0,1.69-1.37,3.06-3.06,3.06h-26.01c-1.69,0-3.06,1.37-3.06,3.06v20.38c0,1.27,1.64,2.27,3.25,2.1,8.3-.92,15.44-2.97,23.79-3.03,1.16,0,3.07,4.29,3.51,5.36l-.11-.28c.75,1.84-.42,1.42-2.4,1.47-8.09.21-15.93,1.76-24.04,3.22-2.19.39-3.99,2.54-3.99,4.77v21.39c0,1.69,1.37,3.06,3.06,3.06h27.55c1.69,0,3.06,1.37,3.06,3.06v1.7c0,1.69-1.37,3.06-3.06,3.06h-36.35c-1.69,0-3.06-1.37-3.06-3.06Z"/>
  <path class="st4" d="M212.51,421.47"/>
  <path class="st4" d="M291.14,414.3"/>
  <path class="st4" d="M267.26,422.11"/>
  <g class="st13">
    <path class="st2" d="M335.04,478.6h-27.55c-1.69,0-3.06-1.37-3.06-3.06v-13.06c-.08-.01-.15-.04-.22-.06-.31-.04-.62-.08-.93-.13-.22-.09-.44-.18-.66-.28-.68-.22-1.27-.6-1.77-1.14l-.03-.03c-.68-.69-1.15-1.5-1.41-2.43-.07-.49-.13-.97-.2-1.46,0-.99.25-1.92.75-2.78.29-.37.57-.74.86-1.11.5-.54,1.09-.92,1.77-1.14.22-.09.44-.18.66-.28,0,0,0,0,0,0,.12-.17.27-.32.45-.42l.36-.15c.11-.03.22-.05.33-.05.11-.02.22-.04.35-.04s.23.01.34.03c0,0,0,0,0,0,.02,0,.05,0,.07,0,.01,0,.02,0,.03,0,0,0,0,0,0,0,.04,0,.09-.01.13-.02.05,0,.09.01.14.03.01,0,.02,0,.04,0,0,0,.02,0,.03,0,0,0,.02,0,.03,0h.03c-.34-.16-.68-.31-1.02-.47.54.2.88.34,1.03.41-.1-.14-.18-.26-.25-.36.07,0,.13,0,.2-.02.44-.09.71-.29,1.29-.64.35-.21.71-.4,1.06-.61,1.03-.61,11.95-3.51,22.99-3.26.54-.06,1.09-.09,1.62-.13.91-.07,1.82-.22,2.73-.25.02-.03.06-.05.07-.09.08-.18-.07-.47-.43-.93-.92-1.16-2.32-5.12-3.41-5.11-8.35.06-15.49,2.11-23.79,3.03-1.61.18-3.25-.83-3.25-2.1v-20.38c0-1.69,1.37-3.06,3.06-3.06h26.01c1.69,0,3.06-1.37,3.06-3.06v-1.7c0-1.69-1.37-3.06-3.06-3.06h-34.81c-1.69,0-3.06,1.37-3.06,3.06v71c0,1.69,1.37,3.06,3.06,3.06h36.35c1.69,0,3.06-1.37,3.06-3.06v-1.7c0-1.69-1.37-3.06-3.06-3.06ZM305.35,450.64c.03.05.06.08.1.15-.24-.05-.47-.1-.71-.14.15.02.37.02.61,0ZM322.05,409.43c1.44.13,2.9.02,4.34.21.27.04.41.38.35.62-.08.28-.35.39-.62.35-1.35-.19-2.72-.06-4.07-.18-.27-.02-.5-.21-.5-.5,0-.25.23-.52.5-.5Z"/>
  </g>
  <path class="st2" d="M333.57,373.95h-34.8c-1.69,0-3.06,1.37-3.06,3.06v70.99c0,1.69,1.37,3.06,3.06,3.06h6.9c-.16-2.58-.29-5.16-.29-7.76,0-.32.04-.61.08-.9-.58-.56-.95-1.34-.95-2.21v-19.29c-.19-.05-.36-.2-.36-.46-.13-5.19.06-10.38.07-15.57,0-.23.13-.38.3-.44v-19.61c0-1.69,1.37-3.06,3.06-3.06h26c1.69,0,3.06-1.37,3.06-3.06v-1.69c0-1.69-1.37-3.06-3.06-3.06Z"/>
  <line class="st5" x1="307.6" y1="443.38" x2="335.13" y2="443.38"/>
  <g class="st6">
    <path class="st2" d="M333.58,439.19h-27.55c-1.69,0-3.06-1.37-3.06-3.06v-13.06c-.08-.01-.15-.04-.22-.06-.31-.04-.62-.08-.93-.13-.22-.09-.44-.18-.66-.28-.68-.22-1.27-.6-1.77-1.14l-.03-.03c-.68-.69-1.15-1.5-1.41-2.43-.07-.49-.13-.97-.2-1.46,0-.99.25-1.92.75-2.78.29-.37.57-.74.86-1.11.5-.54,1.09-.92,1.77-1.14.22-.09.44-.18.66-.28,0,0,0,0,0,0,.12-.17.27-.32.45-.42l.36-.15c.2-.06.4-.07.6-.03.07,0,.13.02.2.03.03,0,.06,0,.09-.01.02,0,.05,0,.07,0,.18,0,.35.04.51.1.02,0,.03,0,.05,0,.06-.07.13-.13.19-.2.02-.03.04-.05.06-.07.7-.77,1.59-1.35,2.6-1.53,8.12-1.46,15.96-3.01,24.04-3.22,1.97-.05,3.13.35,2.41-1.44-.58-1.37-2.32-5.12-3.41-5.11-8.35.06-15.49,2.11-23.79,3.03-1.61.18-3.25-.83-3.25-2.1v-20.38c0-1.69,1.37-3.06,3.06-3.06h26.01c1.69,0,3.06-1.37,3.06-3.06v-1.7c0-1.69-1.37-3.06-3.06-3.06h-34.81c-1.69,0-3.06,1.37-3.06,3.06v71c0,1.69,1.37,3.06,3.06,3.06h36.35c1.69,0,3.06-1.37,3.06-3.06v-1.7c0-1.69-1.37-3.06-3.06-3.06Z"/>
  </g>
  <rect class="st2" x="305.38" y="450.92" width=".33" height=".14" rx=".05" ry=".05"/>
  <rect x="305.65" y="450.98" width=".03" height="0"/>
  <path class="st2" d="M304.44,410.41s0,0,0,0c-.04.08-.1.13-.18.18-.04.02-.08.03-.12.05-.13.04-.27.01-.39-.05-.06-.03-.1-.07-.14-.13-.04-.05-.07-.1-.09-.17-.02-.07-.02-.13,0-.2,0-.07.02-.13.06-.19.1-.16.23-.29.36-.42.04-.04.08-.09.12-.13.05-.05.1-.09.16-.12.05-.03.1-.05.15-.06.03,0,.06,0,.08-.01.02,0,.05,0,.08,0v-4.17h-3.23v16.69h3.23v-11.35s-.05.05-.08.08Z"/>
  <path class="st2" d="M399.49,474.27l-22.99-70.99c-.41-1.26-1.58-2.12-2.91-2.12h-9.19c-1.33,0-2.5.85-2.91,2.12l-22.99,70.99c-.64,1.98.83,4,2.91,4h2.58c1.33,0,2.51-.86,2.92-2.13l5.79-18.18c.05-.14.1-.28.17-.41-1.95-1.43-2.58-4.44-1.3-6.5.52-.83,1.16-1.47,1.88-1.97.02-2.03,1.67-4.12,3.67-4.66.02-.13.03-.26.07-.39l7.09-22.19c.55-2.09,4.18-13.31,4.4-14.63h.44c.33,1.43,3.96,12.65,4.51,14.85l6.65,20.93c.51-.19,1.06-.32,1.66-.34,2.61-.12,5.13,2.38,5,5-.03.61.07,1.24.05,1.84.01.06.02.13.04.19.1.41.56,1.54-.12-.02.17.4.3.78.41,1.16,1.26,2.45.51,5.98-2.24,7.14,0,0,0,.01,0,.02l5.79,18.18c.4,1.27,1.58,2.13,2.92,2.13h2.8c2.08,0,3.55-2.03,2.91-4Z"/>
  <rect class="st2" x="342.52" y="444.54" width="17.53" height="8.33" transform="translate(-184.09 643.9) rotate(-71.97)"/>
  <rect class="st2" x="377.76" y="444.57" width="17.53" height="8.33" transform="translate(79.42 955.14) rotate(-108.03)"/>
  <g class="st9">
    <path class="st2" d="M356.3,476.36l-27.55-.16c-1.69,0-3.05-1.39-3.04-3.07l.08-13.06c-.08-.01-.15-.04-.22-.06-.31-.04-.62-.09-.93-.13-.22-.09-.44-.19-.66-.28-.68-.23-1.27-.61-1.76-1.15l-.03-.03c-.68-.69-1.14-1.5-1.4-2.44-.06-.49-.13-.98-.19-1.46,0-.99.26-1.92.77-2.77.05-.06.1-.12.15-.19-.03-.48,0-.96.08-1.43-.62-2.84.97-6.25,4.73-6.22,1.62,0,2.82.66,3.62,1.62,0,0,0,0,0,0,.12,0,.21.02.32.03.38-.49.98-.82,1.6-.82,1.62,0,3.24-.05,4.85-.08.82-.02,1.65-.04,2.47-.03.43,0,.84.06,1.26.12.01,0,.02,0,.03,0,.03,0,.05,0,.09,0,.17.01.65-.05.05.05.51-.08.98-.03,1.39.16,3.95-.57,7.9-.98,11.91-1.06,1.97-.04,3.12.37,2.42-1.43-.57-1.37-2.29-5.14-3.38-5.14-7.79,0-14.56,1.74-22.18,2.69-.2.1-.44.16-.7.18-.14.09-.28.16-.44.2-.64.12-1.27.17-1.92.16-.26,0-.51-.02-.77-.03-.01,0-.02.01-.04.02-.24.13-.5.18-.77.17-.07,0-.15,0-.22,0-.25-.02-.5-.04-.74-.1-.02,0-.03-.01-.05-.02-.36.08-.74.14-1.16.14-6.45-.04-6.38-10.04.06-10,.24,0,.47.03.69.06.38-.18.79-.32,1.25-.4l.07-12.66c0-1.69,1.39-3.05,3.07-3.04l26.01.15c1.69,0,3.06-1.35,3.07-3.04v-1.7c.02-1.69-1.34-3.06-3.03-3.07l-34.81-.21c-1.69-.01-3.06,1.35-3.07,3.04l-.42,71c-.01,1.69,1.35,3.06,3.04,3.07l36.35.21c1.69.01,3.06-1.35,3.07-3.04v-1.7c.02-1.69-1.34-3.06-3.03-3.07ZM343.73,407.12c1.44.14,2.9.03,4.34.24.27.04.41.38.35.62-.08.28-.35.38-.62.35-1.35-.19-2.72-.07-4.07-.2-.27-.03-.5-.21-.5-.5,0-.25.23-.52.5-.5Z"/>
  </g>
  <g class="st7">
    <path class="st2" d="M375.13,473.62h-27.55c-1.69,0-3.06-1.37-3.06-3.06v-13.06c-.08-.01-.15-.04-.22-.06-.31-.04-.62-.08-.93-.13-.22-.09-.44-.18-.66-.28-.68-.22-1.27-.6-1.77-1.14l-.03-.03c-.68-.69-1.15-1.5-1.41-2.43-.07-.49-.13-.97-.2-1.46,0-.67.13-1.3.35-1.9-3.96-2.09-3.18-9.45,2.35-9.45.02,0,.04,0,.06,0,.29-.05.6-.08.92-.08,1.8,0,3.1.79,3.89,1.91.3,0,.6,0,.89-.04.19,0,.38.02.57.07.16.07.32.13.48.2.3.18.54.42.72.72l.2.48c.03.09.04.19.05.28,6.13-1.11,12.13-2.22,18.2-2.72.33-2.35,2.59-4.23,4.96-4.23h.83c-.72-1.33-1.57-2.6-2.2-2.6-1.3,0-2.56.08-3.81.17-.66.36-1.45.57-2.38.57-.51,0-.98-.07-1.41-.19-5.08.65-9.98,1.71-15.31,2.36-.6.26-1.29.42-2.07.42-.05,0-.09,0-.14,0-.22.03-.45.04-.69.04-.01,0-.02,0-.03,0-.42.11-.87.19-1.37.19-6.44,0-6.43-9.97-.03-10,.07-.02.14-.04.21-.06v-12.95c0-1.69,1.37-3.06,3.06-3.06h26.01c1.69,0,3.06-1.37,3.06-3.06v-1.7c0-1.69-1.37-3.06-3.06-3.06h-34.81c-1.69,0-3.06,1.37-3.06,3.06v71c0,1.69,1.37,3.06,3.06,3.06h36.35c1.69,0,3.06-1.37,3.06-3.06v-1.7c0-1.69-1.37-3.06-3.06-3.06ZM362.15,404.46c1.44.13,2.9.02,4.34.21.27.04.41.38.35.62-.08.28-.35.39-.62.35-1.35-.19-2.72-.06-4.07-.18-.27-.02-.5-.21-.5-.5,0-.25.23-.52.5-.5Z"/>
    <line class="st1" x1="363.95" y1="435.32" x2="367.74" y2="434.93"/>
    <line class="st1" x1="366.55" y1="437.01" x2="370.34" y2="436.62"/>
    <line class="st1" x1="364.76" y1="435.47" x2="368.55" y2="435.08"/>
  </g>
  <g class="st8">
    <path class="st2" d="M395.98,403.99l-34.67-3.14c-1.68-.15-3.17,1.09-3.32,2.77l-6.41,70.71c-.15,1.68,1.09,3.17,2.77,3.32l36.2,3.28c1.68.15,3.17-1.09,3.32-2.77l.15-1.69c.15-1.68-1.09-3.17-2.77-3.32l-27.44-2.49c-1.68-.15-2.92-1.64-2.77-3.32l1.18-13.01c-.08-.02-.14-.05-.22-.08-.31-.07-.61-.14-.92-.21-.21-.11-.42-.22-.63-.34-.66-.28-1.21-.71-1.66-1.29l-.02-.03c-.62-.74-1.01-1.59-1.19-2.54-.02-.49-.04-.98-.06-1.47.09-.99.43-1.89,1-2.7.32-.34.64-.69.96-1.03.54-.49,1.17-.81,1.87-.97.01,0,.03,0,.04-.01.78-1.16,2.07-1.98,3.89-2,.16,0,.31.01.46.02.02,0,.04,0,.06,0,.07,0,.12.01.18.02.11,0,.22-.02.34-.02.15,0,.29.02.44.03.15-.01.3-.02.45-.02.06-.01.11-.03.17-.03,5.68-.49,11.24-1.04,16.8-1.16.08-1.66,1.1-3.16,2.52-4.06-.74-.66-1.29-1.61-1.56-2.62-5.74.1-11.22.86-17.21,1.03,0,.02,0,.04,0,.06-.01.27-.09.51-.24.74-.13.23-.3.42-.52.56-.19.18-.42.3-.68.36-.4.06-.79.11-1.2.11-.23,0-.46-.01-.69-.01-.36,0-.7-.09-1.01-.27-.13-.1-.27-.21-.4-.31-.25-.25-.42-.54-.51-.88-.02-.18-.05-.35-.07-.53,0-.04,0-.07,0-.11-4.04-2-3.38-9.43,2.17-9.51.04,0,.07,0,.11,0l1.17-12.87c.15-1.68,1.64-2.92,3.32-2.77l25.9,2.35c1.68.15,3.17-1.09,3.32-2.77l.15-1.69c.15-1.68-1.09-3.17-2.77-3.32ZM389.17,404.34c-.1.28-.38.35-.64.29-1.33-.31-2.7-.3-4.04-.55-.27-.05-.48-.25-.45-.54.02-.25.28-.5.54-.45,1.43.26,2.88.28,4.3.61.26.06.38.42.29.64Z"/>
  </g>
  <g class="st10">
    <path class="st2" d="M405.26,475.47l-26.79-6.43c-1.64-.39-2.65-2.04-2.26-3.69l3.05-12.7c-.07-.03-.13-.07-.2-.11-.29-.11-.58-.23-.88-.34-.19-.14-.38-.28-.57-.42-.61-.37-1.1-.88-1.46-1.52l-.02-.03c-.5-.83-.77-1.72-.81-2.69.05-.49.1-.98.15-1.47.23-.96.69-1.81,1.38-2.52.37-.29.73-.59,1.1-.88.61-.41,1.27-.64,1.99-.69.23-.04.47-.08.7-.12,0,0,0,0,0,0,.16-.14.33-.24.54-.31l.38-.06c.12,0,.23,0,.34.03.11,0,.23.02.35.05s.23.07.32.11c0,0,0,0,0,0,.02,0,.04.02.07.03.01,0,.02,0,.03,0,0,0,0,0,0,0,.04,0,.09,0,.13.01.05,0,.09.04.13.06.01,0,.02,0,.04,0,0,0,.02,0,.02.01,0,0,.02,0,.03,0h.03s0,0,0,.01c0,0,.01,0,.02,0h.02s.02.01.02.02c.01,0,.03,0,.04,0,.75-.68,1.94-1.04,3.03-.98,8.23.48,16.22.8,24.13,2.48,1.92.41,2.96,1.07,2.68-.84-.24-1.46-1.06-5.52-2.12-5.77-8.13-1.89-15.56-1.57-23.84-2.61-1.6-.2-2.97-1.56-2.67-2.8l4.76-19.81c.39-1.64,2.04-2.65,3.69-2.26l25.29,6.07c1.64.39,3.29-.62,3.69-2.26l.4-1.65c.39-1.64-.62-3.29-2.26-3.69l-33.85-8.13c-1.64-.39-3.29.62-3.69,2.26l-16.58,69.04c-.39,1.64.62,3.29,2.26,3.69l35.34,8.49c1.64.39,3.29-.62,3.69-2.26l.4-1.65c.39-1.64-.62-3.29-2.26-3.69ZM408.78,405.19c1.37.47,2.81.69,4.17,1.22.25.1.31.47.2.68-.14.26-.43.29-.68.2-1.27-.5-2.63-.69-3.92-1.12-.26-.09-.44-.32-.37-.6.06-.25.35-.46.6-.37Z"/>
  </g>
  <line class="st3" x1="331.41" y1="439.72" x2="341.08" y2="438.59"/>
  <rect class="st3" x="331.67" y="439.72" width="10.5" height="5.06"/>
  <rect class="st3" x="333.5" y="439.31" width="4.29" height=".53" transform="translate(-48.79 41.97) rotate(-6.67)"/>
  <rect class="st12" x="337.27" y="439.27" width="0" height=".09"/>
  <rect class="st3" x="336.53" y="439" width="4.29" height=".53" transform="translate(-48.74 42.32) rotate(-6.67)"/>
  <rect class="st3" x="334.23" y="443.8" width="8.21" height="1.55" rx=".78" ry=".78" transform="translate(-40 33.5) rotate(-5.35)"/>
  <rect class="st2" x="341.63" y="443.58" width="7.55" height="1.12" transform="translate(-49.25 43.13) rotate(-6.67)"/>
  <path class="st0" d="M308.96,451.49"/>
  <path class="st0" d="M304.73,452.93"/>
  <line class="st0" x1="304.68" y1="453.32" x2="308.11" y2="452.82"/>
  <path class="st4" d="M306.96,451.06"/>
  <path class="st4" d="M314.73,478.28"/>
  <line class="st0" x1="285.82" y1="450.98" x2="285.82" y2="450.99"/>
  <path class="st4" d="M308.55,449.77s2.21-1.08,2.94-1.48-1.9-.72-1.9-.72l-1.04,2.2Z"/>
  <path class="st2" d="M305.66,451.06c3.14-.99,4.18-2.35,4.18-2.35,2.2-.98-11.2-4.8-11.2-4.8"/>
  <path class="st3" d="M313.96,443.91l-7.25,6.25c.32.14.57.36.76.62,6.67-1.05,31.32-5,34.13-6.76,3.25-2.04-27.63-.11-27.63-.11Z"/>
  <path class="st2" d="M305.65,451.06s2.05-.13,2.34-.24-1.51-.89-1.51-.89l-.83,1.13Z"/>
</svg>